Coordinates
version=1
nRows=19
nColumns=34
inDegrees=yes

Units are S.I. units (second, meters, Newtons, ...)
If the header above contains a line with 'inDegrees', this indicates whether rotational values are in degrees (yes) or radians (no).

endheader
time	pelvis_tilt	pelvis_list	pelvis_rotation	pelvis_tx	pelvis_ty	pelvis_tz	hip_flexion_r	hip_adduction_r	hip_rotation_r	knee_angle_r	ankle_angle_r	subtalar_angle_r	mtp_angle_r	hip_flexion_l	hip_adduction_l	hip_rotation_l	knee_angle_l	ankle_angle_l	subtalar_angle_l	mtp_angle_l	lumbar_extension	lumbar_bending	lumbar_rotation	arm_flex_r	arm_add_r	arm_rot_r	elbow_flex_r	pro_sup_r	arm_flex_l	arm_add_l	arm_rot_l	elbow_flex_l	pro_sup_l
      2.28333330	    -35.36285406	    -49.93741156	    -58.79172530	      0.08985936	      0.59990608	     -0.03303517	      1.26518333	     -0.25923935	    -22.76947012	      9.99065414	     17.40083273	      8.72989622	      0.00000000	      5.20479214	     -0.20851987	    -11.96100595	      0.00000000	     34.25912666	     21.70712283	      0.00000000	     -3.60334245	     -0.07134328	     -0.55714636	    -67.08250387	    -57.33577032	    -76.76313487	     50.95265366	    119.74817918	    -25.02477936	    -92.25441851	    -30.76336855	     44.08309129	    119.74817918
      2.30000000	    -35.48407086	    -49.89486123	    -58.85913567	      0.08857613	      0.60008965	     -0.03370097	      1.47304403	     -0.18987679	    -22.84241373	     10.09515462	     17.41321365	      8.82853077	      0.00000000	      5.37595343	     -0.30952131	    -12.44500668	      0.00000000	     34.11618960	     22.21692467	      0.00000000	     -3.71202000	      0.07533507	     -0.20790635	    -69.06224117	    -56.64445041	    -78.63056842	     51.01538661	    119.74817918	    -24.78287326	    -92.85586561	    -30.23962587	     43.94024265	    119.74817918
      2.31666670	    -35.63040510	    -49.86480439	    -58.75787325	      0.08750009	      0.60014674	     -0.03453953	      1.63241383	     -0.08953799	    -22.91119145	     10.10178162	     17.39818143	      8.80000014	      0.00000000	      5.57267980	     -0.39594309	    -12.65349386	      0.00000000	     33.68186796	     22.49478623	      0.00000000	     -3.79330492	      0.13336840	     -0.14941325	    -70.26897925	    -56.26961777	    -80.02812417	     50.58271054	    119.74817918	    -24.46769494	    -93.20738888	    -30.08211522	     43.78000017	    119.74817918
      2.33333330	    -35.84371470	    -49.88104853	    -58.86709880	      0.08651131	      0.60017604	     -0.03486567	      1.80869547	      0.04324820	    -23.00898012	     10.24482072	     17.39744206	      8.81778452	      0.00000000	      5.71136454	     -0.56523495	    -12.86892447	      0.00000000	     33.66038353	     22.72620379	      0.00000000	     -3.86294335	      0.40826513	      0.08917822	    -71.73106004	    -55.77519290	    -81.55454454	     50.51513141	    119.74817918	    -23.93626589	    -93.32725480	    -29.91644504	     43.68999564	    119.74817918
      2.35000000	    -35.91228077	    -49.86012934	    -58.76885920	      0.08513781	      0.60079910	     -0.03502048	      1.88689736	      0.15923494	    -23.04152324	     10.20429848	     17.36072342	      8.84863022	      0.00000000	      5.86848951	     -0.65269278	    -12.91943196	      0.00000000	     33.54330031	     22.75013433	      0.00000000	     -3.91866338	      0.36248700	      0.17370844	    -72.07451254	    -55.42338201	    -81.89820618	     50.19269953	    119.74817918	    -23.56679705	    -93.76889021	    -30.18419467	     43.37750795	    119.74817918
      2.36666670	    -36.00583936	    -49.82955259	    -58.71542452	      0.08420116	      0.60081636	     -0.03526203	      1.96751725	      0.22911911	    -23.15028217	     10.17391583	     17.35339142	      8.82482360	      0.00000000	      6.01456974	     -0.71207349	    -12.92912028	      0.00000000	     33.37524060	     22.81811779	      0.00000000	     -4.01152523	      0.38385990	      0.30829392	    -72.48639913	    -54.94316991	    -82.34787156	     49.77243222	    119.74817918	    -23.23012317	    -93.95567608	    -30.39129472	     43.03966414	    119.74817918
      2.38333330	    -36.72123023	    -49.75633976	    -59.30237803	      0.08386876	      0.59932713	     -0.03576224	      2.51749512	      0.39653354	    -23.72626874	     10.54286775	     17.37887534	      9.33522265	      0.00000000	      6.41367880	     -1.01790311	    -13.15751487	      0.00000000	     33.61557312	     23.19653076	      0.00000000	     -3.83431447	      1.27062449	      0.49609780	    -74.21512778	    -54.66910219	    -84.38404674	     50.15496039	    119.74817918	    -22.06627072	    -93.00224820	    -30.54467376	     43.49868265	    119.74817918
      2.40000000	    -36.80913394	    -49.73703880	    -59.27166666	      0.08286562	      0.59945995	     -0.03626622	      2.61801670	      0.46106719	    -23.82109771	     10.56326997	     17.34808660	      9.38212500	      0.00000000	      6.54285147	     -1.06985682	    -13.20668580	      0.00000000	     33.37293415	     23.26172488	      0.00000000	     -3.93262819	      1.33204293	      0.62489041	    -74.44715138	    -54.32866545	    -84.58218021	     49.87669521	    119.74817918	    -21.83688733	    -93.18325826	    -30.65727093	     43.28024221	    119.74817918
      2.41666670	    -36.92444810	    -49.70738946	    -59.27511818	      0.08183372	      0.59942144	     -0.03686950	      2.75281703	      0.52623976	    -23.93555536	     10.56026227	     17.28097006	      9.43738321	      0.00000000	      6.72184567	     -1.12119886	    -13.25598168	      0.00000000	     33.22798012	     23.32721919	      0.00000000	     -4.06677101	      1.39442783	      0.76617918	    -74.65602425	    -54.03776761	    -84.77298143	     49.63909273	    119.74817918	    -21.67376706	    -93.25447240	    -30.71538136	     43.09023336	    119.74817918
      2.43333330	    -37.11699546	    -49.66769591	    -59.39503512	      0.08081026	      0.59930347	     -0.03750800	      2.91800971	      0.60649550	    -24.09780394	     10.56075253	     17.16935018	      9.54025721	      0.00000000	      6.91978185	     -1.22528999	    -13.34916786	      0.00000000	     33.05557045	     23.41655295	      0.00000000	     -4.14375659	      1.56049516	      0.94624347	    -74.84012190	    -53.77297330	    -84.93987028	     49.44061115	    119.74817918	    -21.51761838	    -93.27521073	    -30.73381390	     42.91024212	    119.74817918
      2.45000000	    -37.18304506	    -49.64602368	    -59.41265032	      0.07975208	      0.59899119	     -0.03837632	      3.01743624	      0.62808008	    -24.14137559	     10.48359256	     17.14493347	      9.58014454	      0.00000000	      7.07520192	     -1.24086957	    -13.38481279	      0.00000000	     33.03265841	     23.43478429	      0.00000000	     -4.29760274	      1.62865284	      1.04395654	    -74.85971344	    -53.71223931	    -84.94379797	     49.40554739	    119.74817918	    -21.49360129	    -93.22098779	    -30.72300512	     42.85506124	    119.74817918
      2.46666670	    -38.32989749	    -49.39502377	    -60.65216111	      0.07809073	      0.59918041	     -0.03826547	      3.71634734	      1.21854692	    -24.34986892	     10.37781983	     16.86292309	     10.43014984	      0.00000000	      7.75755921	     -1.88734701	    -14.05962022	      0.00000000	     33.12171088	     23.81491942	      0.00000000	     -3.78642743	      2.21028323	      1.53390276	    -75.09560118	    -53.66083814	    -85.25939754	     49.36857104	    119.74817918	    -20.75223437	    -92.66937825	    -30.72396207	     42.88804285	    119.74817918
      2.48333330	    -38.34911673	    -49.39457943	    -60.62933880	      0.07708567	      0.59888831	     -0.03885859	      3.78446671	      1.23818791	    -24.37461584	     10.31609664	     16.84216455	     10.43908596	      0.00000000	      7.85200705	     -1.88708059	    -14.07348658	      0.00000000	     33.08702595	     23.82861471	      0.00000000	     -3.91262894	      2.20142543	      1.62546536	    -75.10554276	    -53.64180179	    -85.24602803	     49.36639458	    119.74817918	    -20.72816177	    -92.63577911	    -30.72702053	     42.84967984	    119.74817918
      2.50000000	    -38.38235559	    -49.41951604	    -60.58798069	      0.07693784	      0.59848452	     -0.03923277	      3.78626564	      1.24206778	    -24.37756098	     10.30988470	     16.83760548	     10.44140089	      0.00000000	      7.87453370	     -1.87946210	    -14.07578219	      0.00000000	     33.08079841	     23.83013307	      0.00000000	     -3.91050378	      2.20092505	      1.68694393	    -75.10260984	    -53.65153953	    -85.24205096	     49.37272435	    119.74817918	    -20.71998130	    -92.63110505	    -30.73161626	     42.83591395	    119.74817918
      2.51666670	    -38.70004696	    -49.42084927	    -61.16683602	      0.07506026	      0.59907614	     -0.03983613	      3.93588832	      1.53779380	    -24.32248995	     10.07928564	     16.35938021	     10.80237764	      0.00000000	      8.07374671	     -2.16727607	    -14.49211313	      0.00000000	     32.67752985	     23.73869190	      0.00000000	     -4.03588648	      2.31146444	      2.08671061	    -74.80563411	    -53.60826881	    -84.85738237	     49.64647471	    119.74817918	    -20.18136361	    -92.49780301	    -31.02680626	     42.44882896	    119.74817918
      2.53333330	    -38.73849517	    -49.44771884	    -61.13043081	      0.07494294	      0.59871051	     -0.04015370	      3.93794460	      1.54745447	    -24.32548945	     10.07429906	     16.36182030	     10.80125570	      0.00000000	      8.09216077	     -2.16178667	    -14.49106158	      0.00000000	     32.68027304	     23.74130479	      0.00000000	     -4.03506459	      2.28656706	      2.13988571	    -74.80181820	    -53.63431412	    -84.85827496	     49.65690994	    119.74817918	    -20.17977632	    -92.48603024	    -31.02580558	     42.44559129	    119.74817918
      2.55000000	    -38.75690697	    -49.44479381	    -61.19444962	      0.07398313	      0.59843650	     -0.04071458	      3.99893459	      1.56367529	    -24.37443228	      9.98655973	     16.37925333	     10.78120345	      0.00000000	      8.16889956	     -2.18432300	    -14.47620565	      0.00000000	     32.69524429	     23.76864170	      0.00000000	     -4.14031045	      2.28867112	      2.27887540	    -74.74371162	    -53.84156585	    -84.83680951	     49.77175282	    119.74817918	    -20.15698732	    -92.49222465	    -31.03139880	     42.48581627	    119.74817918
      2.56666670	    -39.21754551	    -49.49905872	    -61.82983179	      0.07293015	      0.59907895	     -0.04057410	      4.20146506	      1.90567603	    -24.24455338	     10.08437947	     16.22143029	     10.94617388	      0.00000000	      8.28116894	     -2.57322063	    -14.82407635	      0.00000000	     32.75523173	     23.76798740	      0.00000000	     -4.08220315	      2.53856605	      2.56754041	    -74.38833464	    -54.02098354	    -84.63317689	     50.21043449	    119.74817918	    -19.70280230	    -92.25982184	    -31.17366035	     42.56711698	    119.74817918
      2.58333330	    -39.23091919	    -49.49668229	    -61.86163109	      0.07236270	      0.59889804	     -0.04074324	      4.24288890	      1.92206775	    -24.25122387	     10.06671941	     16.23730447	     10.92720442	      0.00000000	      8.32654461	     -2.57073658	    -14.82693414	      0.00000000	     32.75455371	     23.79775063	      0.00000000	     -4.13473409	      2.53251073	      2.58941927	    -74.34467740	    -54.33762945	    -84.64235902	     50.37461333	    119.74817918	    -19.76047526	    -92.19943821	    -31.09443457	     42.72556540	    119.74817918
